<svg width="76" height="76" viewBox="0 0 76 76" fill="none" xmlns="http://www.w3.org/2000/svg">
<g clip-path="url(#clip0_59_132)">
<g clip-path="url(#clip1_59_132)">
<path opacity="0.06" d="M54.6848 0H20.9089C9.36124 0 0 9.36124 0 20.9089V54.6848C0 66.2325 9.36124 75.5938 20.9089 75.5938H54.6848C66.2325 75.5938 75.5938 66.2325 75.5938 54.6848V20.9089C75.5938 9.36124 66.2325 0 54.6848 0Z" fill="#0089FF"/>
<path d="M37.7969 63.5373C52.013 63.5373 63.5373 52.013 63.5373 37.7969C63.5373 23.5809 52.013 12.0565 37.7969 12.0565C23.5809 12.0565 12.0565 23.5809 12.0565 37.7969C12.0565 52.013 23.5809 63.5373 37.7969 63.5373Z" fill="#1B76FF"/>
</g>
<path d="M40 35H36C35.7348 35 35.4804 35.1054 35.2929 35.2929C35.1054 35.4804 35 35.7348 35 36V40C35 40.2652 35.1054 40.5196 35.2929 40.7071C35.4804 40.8946 35.7348 41 36 41H40C40.2652 41 40.5196 40.8946 40.7071 40.7071C40.8946 40.5196 41 40.2652 41 40V36C41 35.7348 40.8946 35.4804 40.7071 35.2929C40.5196 35.1054 40.2652 35 40 35ZM39 39H37V37H39V39ZM47 39C47.2652 39 47.5196 38.8946 47.7071 38.7071C47.8946 38.5196 48 38.2652 48 38C48 37.7348 47.8946 37.4804 47.7071 37.2929C47.5196 37.1054 47.2652 37 47 37H45V35H47C47.2652 35 47.5196 34.8946 47.7071 34.7071C47.8946 34.5196 48 34.2652 48 34C48 33.7348 47.8946 33.4804 47.7071 33.2929C47.5196 33.1054 47.2652 33 47 33H44.82C44.6707 32.5806 44.4299 32.1997 44.1151 31.8849C43.8003 31.5701 43.4194 31.3293 43 31.18V29C43 28.7348 42.8946 28.4804 42.7071 28.2929C42.5196 28.1054 42.2652 28 42 28C41.7348 28 41.4804 28.1054 41.2929 28.2929C41.1054 28.4804 41 28.7348 41 29V31H39V29C39 28.7348 38.8946 28.4804 38.7071 28.2929C38.5196 28.1054 38.2652 28 38 28C37.7348 28 37.4804 28.1054 37.2929 28.2929C37.1054 28.4804 37 28.7348 37 29V31H35V29C35 28.7348 34.8946 28.4804 34.7071 28.2929C34.5196 28.1054 34.2652 28 34 28C33.7348 28 33.4804 28.1054 33.2929 28.2929C33.1054 28.4804 33 28.7348 33 29V31.18C32.5806 31.3293 32.1997 31.5701 31.8849 31.8849C31.5701 32.1997 31.3293 32.5806 31.18 33H29C28.7348 33 28.4804 33.1054 28.2929 33.2929C28.1054 33.4804 28 33.7348 28 34C28 34.2652 28.1054 34.5196 28.2929 34.7071C28.4804 34.8946 28.7348 35 29 35H31V37H29C28.7348 37 28.4804 37.1054 28.2929 37.2929C28.1054 37.4804 28 37.7348 28 38C28 38.2652 28.1054 38.5196 28.2929 38.7071C28.4804 38.8946 28.7348 39 29 39H31V41H29C28.7348 41 28.4804 41.1054 28.2929 41.2929C28.1054 41.4804 28 41.7348 28 42C28 42.2652 28.1054 42.5196 28.2929 42.7071C28.4804 42.8946 28.7348 43 29 43H31.18C31.3293 43.4194 31.5701 43.8003 31.8849 44.1151C32.1997 44.4299 32.5806 44.6707 33 44.82V47C33 47.2652 33.1054 47.5196 33.2929 47.7071C33.4804 47.8946 33.7348 48 34 48C34.2652 48 34.5196 47.8946 34.7071 47.7071C34.8946 47.5196 35 47.2652 35 47V45H37V47C37 47.2652 37.1054 47.5196 37.2929 47.7071C37.4804 47.8946 37.7348 48 38 48C38.2652 48 38.5196 47.8946 38.7071 47.7071C38.8946 47.5196 39 47.2652 39 47V45H41V47C41 47.2652 41.1054 47.5196 41.2929 47.7071C41.4804 47.8946 41.7348 48 42 48C42.2652 48 42.5196 47.8946 42.7071 47.7071C42.8946 47.5196 43 47.2652 43 47V44.82C43.4194 44.6707 43.8003 44.4299 44.1151 44.1151C44.4299 43.8003 44.6707 43.4194 44.82 43H47C47.2652 43 47.5196 42.8946 47.7071 42.7071C47.8946 42.5196 48 42.2652 48 42C48 41.7348 47.8946 41.4804 47.7071 41.2929C47.5196 41.1054 47.2652 41 47 41H45V39H47ZM43 42C43 42.2652 42.8946 42.5196 42.7071 42.7071C42.5196 42.8946 42.2652 43 42 43H34C33.7348 43 33.4804 42.8946 33.2929 42.7071C33.1054 42.5196 33 42.2652 33 42V34C33 33.7348 33.1054 33.4804 33.2929 33.2929C33.4804 33.1054 33.7348 33 34 33H42C42.2652 33 42.5196 33.1054 42.7071 33.2929C42.8946 33.4804 43 33.7348 43 34V42Z" fill="white"/>
</g>
<defs>
<clipPath id="clip0_59_132">
<rect width="75.5938" height="75.5938" fill="white"/>
</clipPath>
<clipPath id="clip1_59_132">
<rect width="75.5938" height="75.5938" fill="white"/>
</clipPath>
</defs>
</svg>
