<svg width="76" height="76" viewBox="0 0 76 76" fill="none" xmlns="http://www.w3.org/2000/svg">
<g clip-path="url(#clip0_59_140)">
<g clip-path="url(#clip1_59_140)">
<path opacity="0.06" d="M54.6848 0H20.9089C9.36124 0 0 9.36124 0 20.9089V54.6848C0 66.2325 9.36124 75.5938 20.9089 75.5938H54.6848C66.2325 75.5938 75.5938 66.2325 75.5938 54.6848V20.9089C75.5938 9.36124 66.2325 0 54.6848 0Z" fill="#FF6F35"/>
<path d="M37.7969 63.5373C52.013 63.5373 63.5373 52.013 63.5373 37.7969C63.5373 23.5809 52.013 12.0565 37.7969 12.0565C23.5809 12.0565 12.0565 23.5809 12.0565 37.7969C12.0565 52.013 23.5809 63.5373 37.7969 63.5373Z" fill="#FFCD1D"/>
</g>
<path d="M46 42.18V33.82C46.4797 33.6529 46.9091 33.3668 47.2479 32.9884C47.5868 32.61 47.824 32.1517 47.9374 31.6566C48.0507 31.1615 48.0365 30.6457 47.8961 30.1575C47.7556 29.6694 47.4935 29.2249 47.1343 28.8657C46.7752 28.5066 46.3307 28.2445 45.8426 28.104C45.3544 27.9636 44.8386 27.9494 44.3435 28.0627C43.8484 28.1761 43.3901 28.4133 43.0117 28.7522C42.6333 29.091 42.3472 29.5204 42.18 30H33.82C33.6529 29.5204 33.3668 29.091 32.9884 28.7522C32.61 28.4133 32.1517 28.1761 31.6566 28.0627C31.1615 27.9494 30.6457 27.9636 30.1575 28.104C29.6694 28.2445 29.2249 28.5066 28.8657 28.8657C28.5066 29.2249 28.2445 29.6694 28.104 30.1575C27.9636 30.6457 27.9494 31.1615 28.0627 31.6566C28.1761 32.1517 28.4133 32.61 28.7522 32.9884C29.091 33.3668 29.5204 33.6529 30 33.82V42.18C29.5204 42.3472 29.091 42.6333 28.7522 43.0117C28.4133 43.3901 28.1761 43.8484 28.0627 44.3435C27.9494 44.8386 27.9636 45.3544 28.104 45.8426C28.2445 46.3307 28.5066 46.7752 28.8657 47.1343C29.2249 47.4935 29.6694 47.7556 30.1575 47.8961C30.6457 48.0365 31.1615 48.0507 31.6566 47.9374C32.1517 47.824 32.61 47.5868 32.9884 47.2479C33.3668 46.9091 33.6529 46.4797 33.82 46H42.18C42.3472 46.4797 42.6333 46.9091 43.0117 47.2479C43.3901 47.5868 43.8484 47.824 44.3435 47.9374C44.8386 48.0507 45.3544 48.0365 45.8426 47.8961C46.3307 47.7556 46.7752 47.4935 47.1343 47.1343C47.4935 46.7752 47.7556 46.3307 47.8961 45.8426C48.0365 45.3544 48.0507 44.8386 47.9374 44.3435C47.824 43.8484 47.5868 43.3901 47.2479 43.0117C46.9091 42.6333 46.4797 42.3472 46 42.18V42.18ZM45 30C45.1978 30 45.3912 30.0587 45.5556 30.1686C45.7201 30.2785 45.8482 30.4346 45.9239 30.6174C45.9996 30.8001 46.0194 31.0012 45.9808 31.1951C45.9422 31.3891 45.847 31.5673 45.7072 31.7072C45.5673 31.847 45.3891 31.9422 45.1951 31.9808C45.0012 32.0194 44.8001 31.9996 44.6174 31.9239C44.4346 31.8482 44.2785 31.7201 44.1686 31.5556C44.0587 31.3912 44 31.1978 44 31C44 30.7348 44.1054 30.4805 44.2929 30.2929C44.4805 30.1054 44.7348 30 45 30V30ZM31 30C31.1978 30 31.3912 30.0587 31.5556 30.1686C31.7201 30.2785 31.8482 30.4346 31.9239 30.6174C31.9996 30.8001 32.0194 31.0012 31.9808 31.1951C31.9422 31.3891 31.847 31.5673 31.7072 31.7072C31.5673 31.847 31.3891 31.9422 31.1951 31.9808C31.0012 32.0194 30.8001 31.9996 30.6174 31.9239C30.4346 31.8482 30.2785 31.7201 30.1686 31.5556C30.0587 31.3912 30 31.1978 30 31C30 30.7348 30.1054 30.4805 30.2929 30.2929C30.4805 30.1054 30.7348 30 31 30V30ZM31 46C30.8023 46 30.6089 45.9414 30.4445 45.8315C30.28 45.7216 30.1519 45.5655 30.0762 45.3827C30.0005 45.2 29.9807 44.9989 30.0193 44.805C30.0578 44.611 30.1531 44.4328 30.2929 44.2929C30.4328 44.1531 30.611 44.0578 30.805 44.0193C30.9989 43.9807 31.2 44.0005 31.3827 44.0762C31.5655 44.1519 31.7216 44.28 31.8315 44.4445C31.9414 44.6089 32 44.8023 32 45C32 45.2653 31.8947 45.5196 31.7072 45.7072C31.5196 45.8947 31.2653 46 31 46ZM42.18 44H33.82C33.6707 43.5806 33.4299 43.1997 33.1151 42.8849C32.8004 42.5702 32.4194 42.3294 32 42.18V33.82C32.4194 33.6707 32.8004 33.4299 33.1151 33.1151C33.4299 32.8004 33.6707 32.4194 33.82 32H42.18C42.3294 32.4194 42.5702 32.8004 42.8849 33.1151C43.1997 33.4299 43.5806 33.6707 44 33.82V42.18C43.5806 42.3294 43.1997 42.5702 42.8849 42.8849C42.5702 43.1997 42.3294 43.5806 42.18 44V44ZM45 46C44.8023 46 44.6089 45.9414 44.4445 45.8315C44.28 45.7216 44.1519 45.5655 44.0762 45.3827C44.0005 45.2 43.9807 44.9989 44.0193 44.805C44.0578 44.611 44.1531 44.4328 44.2929 44.2929C44.4328 44.1531 44.611 44.0578 44.805 44.0193C44.9989 43.9807 45.2 44.0005 45.3827 44.0762C45.5655 44.1519 45.7216 44.28 45.8315 44.4445C45.9414 44.6089 46 44.8023 46 45C46 45.2653 45.8947 45.5196 45.7072 45.7072C45.5196 45.8947 45.2653 46 45 46Z" fill="white"/>
</g>
<defs>
<clipPath id="clip0_59_140">
<rect width="75.5938" height="75.5938" fill="white"/>
</clipPath>
<clipPath id="clip1_59_140">
<rect width="75.5938" height="75.5938" fill="white"/>
</clipPath>
</defs>
</svg>
