<svg width="76" height="76" viewBox="0 0 76 76" fill="none" xmlns="http://www.w3.org/2000/svg">
<g clip-path="url(#clip0_59_155)">
<g clip-path="url(#clip1_59_155)">
<path opacity="0.06" d="M54.6848 0H20.9089C9.36124 0 0 9.36124 0 20.9089V54.6848C0 66.2325 9.36124 75.5938 20.9089 75.5938H54.6848C66.2325 75.5938 75.5938 66.2325 75.5938 54.6848V20.9089C75.5938 9.36124 66.2325 0 54.6848 0Z" fill="#5CC97B"/>
<path d="M37.7969 63.5373C52.013 63.5373 63.5373 52.013 63.5373 37.7969C63.5373 23.5809 52.013 12.0565 37.7969 12.0565C23.5809 12.0565 12.0565 23.5809 12.0565 37.7969C12.0565 52.013 23.5809 63.5373 37.7969 63.5373Z" fill="#5CC97B"/>
</g>
<path d="M33.42 41.54C33.2338 41.7274 33.1292 41.9808 33.1292 42.245C33.1292 42.5092 33.2338 42.7627 33.42 42.95C33.513 43.0437 33.6236 43.1181 33.7454 43.1689C33.8673 43.2197 33.998 43.2458 34.13 43.2458C34.262 43.2458 34.3927 43.2197 34.5146 43.1689C34.6365 43.1181 34.7471 43.0437 34.84 42.95C35.0263 42.7627 35.1308 42.5092 35.1308 42.245C35.1308 41.9808 35.0263 41.7274 34.84 41.54C34.7471 41.4463 34.6365 41.3719 34.5146 41.3211C34.3927 41.2704 34.262 41.2442 34.13 41.2442C33.998 41.2442 33.8673 41.2704 33.7454 41.3211C33.6236 41.3719 33.513 41.4463 33.42 41.54V41.54ZM33.42 33.05C33.2338 33.2374 33.1292 33.4908 33.1292 33.755C33.1292 34.0192 33.2338 34.2727 33.42 34.46C33.513 34.5537 33.6236 34.6281 33.7454 34.6789C33.8673 34.7297 33.998 34.7558 34.13 34.7558C34.262 34.7558 34.3927 34.7297 34.5146 34.6789C34.6365 34.6281 34.7471 34.5537 34.84 34.46C35.0263 34.2727 35.1308 34.0192 35.1308 33.755C35.1308 33.4908 35.0263 33.2374 34.84 33.05C34.7471 32.9563 34.6365 32.8819 34.5146 32.8311C34.3927 32.7804 34.262 32.7542 34.13 32.7542C33.998 32.7542 33.8673 32.7804 33.7454 32.8311C33.6236 32.8819 33.513 32.9563 33.42 33.05ZM38.37 43.05C38.1722 43.05 37.9789 43.1087 37.8145 43.2185C37.65 43.3284 37.5218 43.4846 37.4461 43.6673C37.3705 43.8501 37.3506 44.0511 37.3892 44.2451C37.4278 44.4391 37.5231 44.6173 37.6629 44.7571C37.8028 44.897 37.9809 44.9922 38.1749 45.0308C38.3689 45.0694 38.57 45.0496 38.7527 44.9739C38.9354 44.8982 39.0916 44.77 39.2015 44.6056C39.3114 44.4411 39.37 44.2478 39.37 44.05C39.3768 43.9145 39.356 43.7791 39.3087 43.652C39.2615 43.5248 39.189 43.4086 39.0954 43.3104C39.0019 43.2121 38.8893 43.134 38.7646 43.0806C38.6399 43.0273 38.5057 42.9998 38.37 43V43.05ZM32.37 37.05C32.1722 37.05 31.9789 37.1087 31.8145 37.2185C31.65 37.3284 31.5218 37.4846 31.4461 37.6673C31.3705 37.8501 31.3506 38.0511 31.3892 38.2451C31.4278 38.4391 31.5231 38.6173 31.6629 38.7571C31.8028 38.897 31.9809 38.9922 32.1749 39.0308C32.3689 39.0694 32.57 39.0496 32.7527 38.9739C32.9354 38.8982 33.0916 38.77 33.2015 38.6056C33.3114 38.4411 33.37 38.2478 33.37 38.05C33.3768 37.9145 33.356 37.7791 33.3087 37.652C33.2615 37.5248 33.189 37.4086 33.0954 37.3104C33.0019 37.2121 32.8893 37.134 32.7646 37.0806C32.6399 37.0273 32.5057 36.9998 32.37 37V37.05ZM38.37 31.05C38.1722 31.05 37.9789 31.1087 37.8145 31.2185C37.65 31.3284 37.5218 31.4846 37.4461 31.6673C37.3705 31.8501 37.3506 32.0511 37.3892 32.2451C37.4278 32.4391 37.5231 32.6173 37.6629 32.7571C37.8028 32.897 37.9809 32.9922 38.1749 33.0308C38.3689 33.0694 38.57 33.0496 38.7527 32.9739C38.9354 32.8982 39.0916 32.77 39.2015 32.6056C39.3114 32.4411 39.37 32.2478 39.37 32.05C39.3768 31.9145 39.356 31.7791 39.3087 31.652C39.2615 31.5248 39.189 31.4086 39.0954 31.3104C39.0019 31.2121 38.8893 31.134 38.7646 31.0806C38.6399 31.0273 38.5057 30.9998 38.37 31V31.05ZM41.91 33.1C41.7696 33.2396 41.6737 33.4178 41.6347 33.6119C41.5956 33.8061 41.6151 34.0075 41.6906 34.1905C41.7661 34.3736 41.8943 34.5301 42.0588 34.6403C42.2234 34.7504 42.417 34.8092 42.615 34.8092C42.8131 34.8092 43.0066 34.7504 43.1712 34.6403C43.3358 34.5301 43.464 34.3736 43.5395 34.1905C43.615 34.0075 43.6344 33.8061 43.5954 33.6119C43.5563 33.4178 43.4605 33.2396 43.32 33.1C43.1393 32.907 42.8896 32.7933 42.6253 32.784C42.3611 32.7746 42.1039 32.8703 41.91 33.05V33.1ZM48.21 33.1C47.2958 31.2723 45.8904 29.7354 44.1516 28.6617C42.4128 27.588 40.4092 27.0199 38.3656 27.0211C36.322 27.0223 34.3191 27.5928 32.5816 28.6686C30.8441 29.7444 29.4406 31.283 28.5285 33.1118C27.6164 34.9406 27.2318 36.9873 27.4179 39.0224C27.6039 41.0575 28.3532 43.0006 29.5817 44.6338C30.8102 46.2669 32.4694 47.5255 34.3732 48.2684C36.2769 49.0114 38.35 49.2093 40.36 48.84C40.8655 48.7449 41.3469 48.55 41.7761 48.2667C42.2054 47.9834 42.5739 47.6174 42.86 47.19C43.1684 46.7254 43.3811 46.2041 43.4858 45.6564C43.5906 45.1087 43.5852 44.5456 43.47 44C43.407 43.6703 43.3736 43.3357 43.37 43C43.3744 42.031 43.6603 41.0841 44.1929 40.2745C44.7255 39.465 45.4819 38.8276 46.37 38.44C46.8489 38.2256 47.2787 37.9153 47.633 37.5284C47.9873 37.1414 48.2586 36.6859 48.43 36.19C48.6034 35.6833 48.6733 35.1469 48.6355 34.6127C48.5977 34.0785 48.453 33.5573 48.21 33.08V33.1ZM46.51 35.54C46.4247 35.7793 46.2922 35.9991 46.1205 36.1863C45.9487 36.3736 45.7411 36.5244 45.51 36.63C44.28 37.1806 43.2351 38.0746 42.5007 39.2045C41.7663 40.3345 41.3737 41.6524 41.37 43C41.3715 43.4701 41.4184 43.9389 41.51 44.4C41.5711 44.6818 41.5751 44.973 41.5219 45.2564C41.4686 45.5397 41.3592 45.8096 41.2 46.05C41.0653 46.2604 40.8881 46.4403 40.6797 46.5781C40.4713 46.7159 40.2364 46.8085 39.99 46.85C39.4559 46.9504 38.9135 47.0006 38.37 47C37.1642 47.0006 35.9705 46.7589 34.8599 46.2892C33.7494 45.8195 32.7445 45.1314 31.905 44.2658C31.0655 43.4002 30.4085 42.3747 29.973 41.2502C29.5376 40.1258 29.3325 38.9253 29.37 37.72C29.4476 35.4728 30.359 33.335 31.9267 31.723C33.4943 30.111 35.6059 29.1403 37.85 29H38.36C40.0358 29.0004 41.6781 29.4687 43.1021 30.3521C44.5261 31.2355 45.6752 32.4989 46.42 34C46.6493 34.475 46.6816 35.0213 46.51 35.52V35.54ZM38.37 37C38.1722 37 37.9789 37.0587 37.8145 37.1685C37.65 37.2784 37.5218 37.4346 37.4461 37.6173C37.3705 37.8001 37.3506 38.0011 37.3892 38.1951C37.4278 38.3891 37.5231 38.5673 37.6629 38.7071C37.8028 38.847 37.9809 38.9422 38.1749 38.9808C38.3689 39.0194 38.57 38.9996 38.7527 38.9239C38.9354 38.8482 39.0916 38.72 39.2015 38.5556C39.3114 38.3911 39.37 38.1978 39.37 38C39.37 37.7348 39.2647 37.4804 39.0771 37.2929C38.8896 37.1054 38.6352 37 38.37 37Z" fill="white"/>
</g>
<defs>
<clipPath id="clip0_59_155">
<rect width="75.5938" height="75.5938" fill="white"/>
</clipPath>
<clipPath id="clip1_59_155">
<rect width="75.5938" height="75.5938" fill="white"/>
</clipPath>
</defs>
</svg>
