<svg width="106" height="31" viewBox="0 0 106 31" fill="none" xmlns="http://www.w3.org/2000/svg">
<path d="M15.051 2.642V6.615H6.757V10.907H12.963V14.764H6.757V23H1.798V2.642H15.051ZM22.6164 1.54V23H17.6574V1.54H22.6164ZM67.8756 6.818L63.4966 23H58.0156L55.4636 12.502L52.8246 23H47.3726L42.9646 6.818H47.9236L50.2146 18.389L52.9406 6.818H58.1896L60.9446 18.331L63.2066 6.818H67.8756ZM77.8868 10.936H75.2188V23H70.2598V10.936H68.4618V6.818H70.2598V6.354C70.2598 4.36267 70.8301 2.85467 71.9708 1.83C73.1114 0.785999 74.7838 0.263999 76.9878 0.263999C77.3551 0.263999 77.6258 0.273665 77.7998 0.292998V4.498C76.8524 4.44 76.1854 4.57533 75.7988 4.904C75.4121 5.23267 75.2188 5.82233 75.2188 6.673V6.818H77.8868V10.936ZM85.1759 1.54V23H80.2169V1.54H85.1759ZM105.3 6.818L95.1497 30.685H89.8137L93.5257 22.449L86.9427 6.818H92.4817L96.2227 16.939L99.9347 6.818H105.3Z" fill="white"/>
<path d="M40.9166 14L40.9166 14.0015C40.9277 15.8192 40.3309 17.5827 39.231 18.9884C38.1312 20.3939 36.598 21.3531 34.8965 21.7038C33.1953 22.0544 31.4296 21.7752 29.9031 20.9131C28.3764 20.0508 27.1832 18.6586 26.5316 16.9741C25.8799 15.2894 25.8115 13.4197 26.3385 11.6879C26.8655 9.95607 27.9539 8.47262 29.4139 7.49126C30.8735 6.51008 32.6139 6.09155 34.3356 6.30599C35.8668 6.49671 37.3003 7.17775 38.442 8.25H36.7391C36.4151 8.25 36.1067 8.3844 35.881 8.61992C35.6556 8.85507 35.5308 9.17183 35.5308 9.5C35.5308 9.82817 35.6556 10.1449 35.881 10.3801C36.1067 10.6156 36.4151 10.75 36.7391 10.75H41.0804C41.4044 10.75 41.7128 10.6156 41.9385 10.3801C42.1639 10.1449 42.2887 9.82817 42.2887 9.5V5C42.2887 4.67183 42.1639 4.35507 41.9385 4.11992C41.7128 3.8844 41.4044 3.75 41.0804 3.75C40.7564 3.75 40.4479 3.8844 40.2222 4.11992C39.9969 4.35507 39.872 4.67183 39.872 5V6.19173C38.3 4.79749 36.3414 3.95001 34.2718 3.78017C32.0104 3.59459 29.7581 4.22966 27.8957 5.57609C26.0336 6.92234 24.6761 8.89661 24.0502 11.1637C23.4243 13.4306 23.5676 15.8534 24.4564 18.0233C25.3451 20.1933 26.9257 21.9789 28.9333 23.0762C30.9411 24.1737 33.2517 24.5145 35.4737 24.04C37.6955 23.5655 39.69 22.3055 41.1212 20.4757C42.5523 18.6461 43.333 16.3587 43.3333 14V14C43.3333 13.6718 43.2085 13.3551 42.9831 13.1199C42.7574 12.8844 42.449 12.75 42.125 12.75C41.801 12.75 41.4925 12.8844 41.2668 13.1199C41.0415 13.3551 40.9166 13.6718 40.9166 14Z" fill="#FF6D35" stroke="#FF6D35" stroke-width="0.5"/>
</svg>
